<svg id="Layer_1" data-name="Layer 1" xmlns="http://www.w3.org/2000/svg" viewBox="0 0 4011 1037"><defs><style>.cls-1{fill:#ffacb5;}</style></defs><path class="cls-1" d="M2568.42,699V1736h-4011V699Zm-3514.9,345.68v-93h-171v558h171v-259q0-69,32-96.5t96-27.5h47v-181q-55,0-100,26.5T-946.48,1044.72Zm933,177q0-84-35.5-147t-98.5-97q-63-34-144-34-83,0-147,35t-99.5,100q-35.5,65-35.5,152t36,152q36,65,100,100t146,35q68,0,123-25t91.5-69a249.83,249.83,0,0,0,50.5-99h-182q-25,54-89,54-43,0-72.5-27.5t-33.5-79.5h387A436.48,436.48,0,0,0-13.49,1221.72Zm-389-45q7-46,36.5-71t72.5-25q45,0,75,26t30,70Zm595,54q0,87,35.5,152t99,100q63.48,35,145.5,35,104,0,175-56t93-154h-182q-23,64-89,64-47,0-75-36.5t-28-104.5q0-68,28-104.5t75-36.5q66,0,89,64h182q-22-100-92.5-155t-175.5-55q-82,0-145.5,35t-99,100Q192.49,1143.73,192.51,1230.72Zm1043,287q82,0,148.5-35t105-100.5q38.49-65.49,38.5-151.5t-38-151.5q-38-65.49-104-100.5t-148-35q-82,0-148,35t-104,100.5q-38,65.51-38,151.5,0,87,37.5,152t103,100Q1153.49,1517.73,1235.5,1517.72Zm0-148q-49,0-81.5-36t-32.5-103q0-68,33-103.5t83-35.5q49,0,82.5,36t33.5,103q0,67-34.5,103T1235.5,1369.72Zm873-424q-55,0-99,21.5t-70,58.5v-74h-171v558h171v-303q0-56,29-87t78-31q49,0,78,31t29,87v303h170v-326q0-111-58.5-174.5T2108.5,945.72Z" transform="translate(1442.58 -699.04)"/></svg>